<svg xmlns="http://www.w3.org/2000/svg" version="1.1" viewBox="147.66 213.7 737.3 589.86">
<path fill="#262625" d="M 605.00,254.46 Q 604.53,254.74 604.38,255.20 A 0.75,0.59 26.7 0 0 604.73,255.95 Q 606.68,257.17 608.57,258.48 Q 610.74,259.99 612.68,260.26 Q 616.16,260.75 620.22,260.09 A 1.60,1.60 83.4 0 1 622.07,261.56 Q 622.14,262.45 623.15,264.04 Q 623.82,265.09 623.01,265.61 A 1.55,1.01 -15.6 0 0 622.41,266.29 Q 621.41,269.15 618.49,268.61 Q 618.00,268.52 617.50,268.57 Q 617.00,268.62 616.49,268.59 Q 615.88,268.55 615.14,268.08 Q 612.44,266.33 609.75,267.00 Q 607.58,267.54 607.58,269.68 Q 607.58,272.24 607.57,272.33 Q 606.91,277.65 607.25,283.00 Q 607.35,284.60 606.71,290.38 Q 606.67,290.80 605.75,293.96 Q 604.78,297.29 608.40,299.38 Q 608.77,299.60 608.76,299.89 A 0.83,0.44 -80.5 0 0 608.98,300.55 Q 610.04,301.25 611.06,302.94 Q 611.65,303.91 611.94,303.17 A 1.51,0.56 65.4 0 0 611.87,302.22 Q 611.53,301.09 612.38,299.97 A 0.66,0.66 30.3 0 1 613.16,299.77 Q 616.65,301.26 616.69,297.81 Q 616.72,294.20 617.77,291.95 A 1.08,0.92 3.9 0 1 618.49,291.42 Q 621.08,290.86 620.77,288.30 A 0.69,0.59 1.9 0 0 620.20,287.78 Q 619.43,287.67 619.43,287.16 A 0.73,0.56 -5.8 0 1 620.05,286.58 Q 621.79,286.32 622.22,287.94 Q 622.34,288.39 622.66,288.80 Q 623.08,289.32 623.08,289.93 Q 623.08,290.34 622.40,291.25 Q 621.42,292.56 622.62,294.16 A 0.89,0.89 53.4 0 1 622.44,295.40 L 620.96,296.51 A 0.55,0.51 55.9 0 0 620.85,297.22 Q 621.79,298.76 620.84,300.39 A 1.19,0.94 55.7 0 0 620.78,301.27 Q 621.11,302.27 619.81,302.94 Q 618.35,303.69 617.31,303.80 A 0.48,0.46 84.4 0 0 616.90,304.32 L 616.94,304.82 A 1.06,0.95 17.3 0 0 617.37,305.54 Q 617.90,305.90 617.86,306.51 Q 617.83,307.03 617.83,307.13 Q 617.98,309.55 616.61,309.13 Q 614.71,308.55 615.63,310.31 Q 619.57,317.85 623.21,324.00 Q 631.76,338.46 638.46,353.87 Q 638.50,353.96 639.07,355.55 Q 639.72,357.35 641.25,359.00 Q 643.48,361.41 645.45,364.55 Q 647.03,367.07 648.40,370.81 Q 649.67,374.27 650.84,377.75 Q 651.61,380.02 652.69,384.86 Q 654.29,392.07 657.94,400.56 Q 663.52,413.56 669.15,435.15 Q 669.18,435.27 670.08,437.76 Q 670.71,439.50 670.48,441.41 Q 670.44,441.67 670.36,441.41 Q 670.11,440.69 669.94,441.44 A 2.25,1.45 10.1 0 1 667.56,442.44 Q 665.91,442.18 664.50,443.04 Q 652.36,440.22 640.25,437.25 Q 636.79,436.40 635.01,436.46 A 1.73,0.61 -10.2 0 1 634.04,436.30 L 631.64,434.82 A 1.72,0.79 43.9 0 0 630.75,434.51 Q 623.80,434.60 617.23,432.41 A 1.36,1.16 -44.8 0 0 616.30,432.48 Q 614.79,433.19 613.23,432.76 Q 611.81,432.37 611.73,432.35 Q 610.01,432.00 608.36,431.40 Q 606.67,430.79 605.01,430.71 Q 600.18,430.48 595.56,428.94 Q 593.45,428.24 593.00,428.25 Q 588.21,428.39 583.46,427.90 Q 574.93,427.01 574.00,426.95 Q 566.47,426.44 563.25,426.00 Q 555.15,424.89 547.00,424.75 Q 542.60,424.67 537.02,424.31 Q 531.62,423.96 527.00,424.25 Q 525.65,424.34 524.25,425.46 L 513.52,425.10 A 1.05,0.65 12.3 0 0 512.73,425.38 L 512.46,425.75 L 508.50,425.71 Q 508.23,423.91 506.00,424.25 Q 504.41,424.49 501.65,424.24 Q 499.24,424.03 497.34,424.17 Q 491.65,424.59 485.95,424.82 Q 479.41,425.08 474.58,425.53 Q 457.80,427.10 441.00,428.50 Q 437.94,428.76 434.44,429.69 Q 432.91,430.10 430.47,430.20 Q 428.42,430.29 426.47,430.93 Q 426.29,430.99 423.44,431.61 Q 421.71,431.99 420.25,433.50 Q 419.66,434.11 418.50,434.22 A 0.88,0.68 66.8 0 1 417.77,433.81 Q 417.21,432.95 416.13,433.25 Q 414.91,433.59 414.83,433.60 Q 389.03,437.48 363.74,443.88 A 1.48,1.08 4.3 0 0 362.94,444.38 Q 361.99,445.67 363.25,446.54 Q 357.12,449.28 356.30,456.02 Q 356.24,456.55 355.99,456.91 Q 355.00,458.37 354.79,456.52 Q 354.74,456.07 354.85,455.47 Q 355.46,452.24 355.93,448.99 A 0.68,0.63 -75.0 0 0 355.55,448.27 L 352.50,447.04 Q 339.72,442.33 325.50,440.75 Q 297.89,437.69 271.25,438.69 Q 253.08,439.37 235.00,441.21 Q 233.43,438.34 230.74,440.50 Q 229.50,441.49 228.00,442.04 Q 194.05,446.23 161.00,455.00 Q 159.54,455.39 157.00,456.46 Q 152.37,460.32 149.11,465.42 Q 148.93,465.70 148.68,465.87 Q 147.04,466.99 148.04,465.30 Q 152.77,457.32 158.04,449.70 Q 161.20,445.14 168.83,434.66 Q 189.53,406.23 213.50,380.46 Q 213.80,383.08 212.26,384.82 Q 210.23,387.11 210.07,387.43 Q 209.24,389.10 208.93,390.93 Q 208.50,393.47 208.15,394.48 Q 204.51,405.03 203.56,409.06 Q 200.16,423.59 201.02,438.87 A 1.63,1.56 83.5 0 0 202.86,440.40 L 208.00,439.46 L 210.54,439.00 L 215.25,438.29 L 228.75,435.96 L 243.25,434.29 L 246.00,434.04 L 250.00,433.71 L 261.25,432.96 Q 263.16,433.22 265.00,432.71 L 287.50,432.29 L 292.00,432.46 L 296.50,432.46 L 300.75,432.71 L 305.25,432.96 L 309.00,433.21 L 313.00,433.46 L 333.50,435.71 L 358.01,440.16 A 0.52,0.51 -79.1 0 0 358.60,439.75 Q 367.92,395.64 385.37,354.09 Q 400.03,319.20 423.50,289.54 L 434.29,277.75 L 436.04,276.00 L 438.54,273.75 L 443.04,269.75 L 445.29,267.75 L 448.79,265.00 L 452.25,262.54 Q 464.66,254.02 478.75,248.71 L 493.25,244.04 L 511.45,240.72 A 1.01,0.96 -5.9 0 0 512.29,239.74 Q 511.98,229.46 512.19,220.18 Q 512.25,217.69 513.48,216.21 Q 517.22,211.68 522.94,215.31 Q 525.82,217.14 525.61,220.74 Q 525.50,222.70 525.50,222.77 Q 525.50,231.55 525.68,240.32 A 0.61,0.60 4.7 0 0 526.18,240.90 Q 551.73,245.37 567.06,247.69 Q 588.02,250.86 605.00,254.46 Z"/>
<path fill="#858482" d="M 493.25,244.04 L 478.75,248.71 Q 478.63,246.45 476.50,247.00 Q 472.97,247.90 471.75,247.96 Q 472.66,246.86 471.50,246.71 Q 482.29,244.62 493.25,244.04 Z"/>
<path fill="#7b7a79" d="M 471.50,246.71 Q 472.66,246.86 471.75,247.96 L 467.00,248.79 Q 462.71,249.38 458.68,250.84 Q 452.24,253.17 450.63,253.61 Q 445.55,255.01 440.50,256.50 Q 435.86,257.87 433.42,258.81 Q 430.48,259.94 430.40,259.97 Q 413.05,266.00 402.75,270.25 Q 399.73,271.49 397.66,272.23 Q 394.19,273.47 392.59,274.22 Q 385.29,277.64 377.98,281.04 Q 369.61,284.94 363.63,288.31 Q 351.60,295.09 340.10,302.76 Q 339.35,303.26 336.27,305.06 Q 334.33,306.19 332.59,307.61 Q 327.77,311.56 327.68,311.62 Q 313.64,321.92 303.50,331.50 Q 286.15,347.89 274.26,370.48 Q 268.74,380.96 266.06,390.31 Q 260.25,410.59 261.25,432.96 L 250.00,433.71 Q 249.23,431.36 249.25,428.25 Q 249.42,403.74 258.40,381.60 Q 258.74,380.77 259.10,379.97 Q 267.75,361.16 281.01,345.25 Q 290.89,333.40 302.52,323.31 Q 302.57,323.27 306.39,319.60 Q 308.36,317.71 311.44,315.44 Q 331.54,300.63 349.49,289.85 Q 361.23,282.81 363.49,281.57 Q 370.43,277.78 378.31,274.81 Q 382.78,273.13 389.95,270.09 Q 393.84,268.44 398.74,266.97 Q 404.37,265.27 407.56,263.81 Q 412.68,261.48 416.45,260.35 Q 420.20,259.23 420.98,258.96 Q 423.22,258.19 425.49,257.47 Q 425.58,257.44 428.58,256.93 Q 430.25,256.65 431.47,255.43 Q 431.85,255.05 432.29,254.91 Q 435.26,253.94 438.12,252.67 Q 438.36,252.56 438.92,252.50 Q 439.65,252.43 439.50,251.71 Q 455.40,248.58 471.50,246.71 Z"/>
<path fill="#959491" d="M 478.75,248.71 Q 464.66,254.02 452.25,262.54 Q 449.74,261.05 447.55,262.42 Q 445.38,263.77 445.28,263.81 Q 439.36,266.54 437.06,267.31 Q 429.45,269.88 421.97,272.82 Q 421.60,272.96 421.21,273.40 Q 420.84,273.83 420.30,274.03 Q 414.70,276.11 409.22,278.51 Q 408.46,278.84 406.09,279.67 Q 404.48,280.23 403.02,281.06 Q 399.47,283.08 398.65,283.44 Q 384.27,289.87 370.89,298.19 Q 370.44,298.47 369.01,299.09 Q 368.01,299.53 367.21,300.26 Q 365.58,301.76 364.83,302.19 Q 362.65,303.46 359.75,305.50 Q 358.13,306.64 349.90,311.89 Q 348.41,312.85 346.47,314.56 Q 344.82,316.01 343.02,317.26 Q 338.46,320.41 337.69,321.04 Q 321.73,334.01 310.81,349.31 Q 298.12,367.12 292.93,388.93 Q 290.98,397.12 290.30,408.73 Q 289.75,418.23 289.50,429.25 Q 289.45,431.35 287.50,432.29 L 265.00,432.71 Q 264.53,431.75 264.50,429.00 Q 264.26,406.65 270.00,387.38 Q 270.35,386.22 271.25,384.21 Q 271.80,382.97 272.56,381.06 Q 283.24,354.22 304.21,333.46 Q 321.49,316.36 341.82,303.00 Q 349.07,298.23 362.69,291.19 Q 383.22,280.57 394.84,275.96 Q 413.57,268.54 432.25,261.00 Q 440.64,257.61 445.46,255.95 Q 446.79,255.49 452.81,254.30 Q 457.30,253.41 461.00,251.25 Q 463.02,250.07 465.00,250.20 A 0.93,0.85 -68.7 0 0 465.77,249.82 Q 466.26,249.17 467.00,248.79 L 471.75,247.96 Q 472.97,247.90 476.50,247.00 Q 478.63,246.45 478.75,248.71 Z"/>
<path fill="#858482" d="M 467.00,248.79 Q 466.26,249.17 465.77,249.82 A 0.93,0.85 -68.7 0 1 465.00,250.20 Q 463.02,250.07 461.00,251.25 Q 457.30,253.41 452.81,254.30 Q 446.79,255.49 445.46,255.95 Q 440.64,257.61 432.25,261.00 Q 413.57,268.54 394.84,275.96 Q 383.22,280.57 362.69,291.19 Q 349.07,298.23 341.82,303.00 Q 321.49,316.36 304.21,333.46 Q 283.24,354.22 272.56,381.06 Q 271.80,382.97 271.25,384.21 Q 270.35,386.22 270.00,387.38 Q 264.26,406.65 264.50,429.00 Q 264.53,431.75 265.00,432.71 Q 263.16,433.22 261.25,432.96 Q 260.25,410.59 266.06,390.31 Q 268.74,380.96 274.26,370.48 Q 286.15,347.89 303.50,331.50 Q 313.64,321.92 327.68,311.62 Q 327.77,311.56 332.59,307.61 Q 334.33,306.19 336.27,305.06 Q 339.35,303.26 340.10,302.76 Q 351.60,295.09 363.63,288.31 Q 369.61,284.94 377.98,281.04 Q 385.29,277.64 392.59,274.22 Q 394.19,273.47 397.66,272.23 Q 399.73,271.49 402.75,270.25 Q 413.05,266.00 430.40,259.97 Q 430.48,259.94 433.42,258.81 Q 435.86,257.87 440.50,256.50 Q 445.55,255.01 450.63,253.61 Q 452.24,253.17 458.68,250.84 Q 462.71,249.38 467.00,248.79 Z"/>
<path fill="#727170" d="M 439.50,251.71 Q 439.65,252.43 438.92,252.50 Q 438.36,252.56 438.12,252.67 Q 435.26,253.94 432.29,254.91 Q 431.85,255.05 431.47,255.43 Q 430.25,256.65 428.58,256.93 Q 425.58,257.44 425.49,257.47 Q 423.22,258.19 420.98,258.96 Q 420.20,259.23 416.45,260.35 Q 412.68,261.48 407.56,263.81 Q 404.37,265.27 398.74,266.97 Q 393.84,268.44 389.95,270.09 Q 382.78,273.13 378.31,274.81 Q 370.43,277.78 363.49,281.57 Q 361.23,282.81 349.49,289.85 Q 331.54,300.63 311.44,315.44 Q 308.36,317.71 306.39,319.60 Q 302.57,323.27 302.52,323.31 Q 290.89,333.40 281.01,345.25 Q 267.75,361.16 259.10,379.97 Q 258.74,380.77 258.40,381.60 Q 249.42,403.74 249.25,428.25 Q 249.23,431.36 250.00,433.71 L 246.00,434.04 Q 244.89,433.89 245.50,433.00 Q 245.89,422.85 246.99,412.75 Q 249.12,393.33 258.03,375.98 Q 274.39,344.12 301.63,320.87 Q 314.88,309.56 321.75,305.50 Q 325.24,303.44 327.54,301.83 Q 332.28,298.52 333.18,297.98 Q 343.30,291.91 353.55,286.04 Q 353.79,285.90 356.21,284.90 Q 357.28,284.46 358.81,283.56 Q 368.18,278.05 382.75,272.50 Q 385.15,271.58 390.45,269.08 Q 394.19,267.30 398.27,265.97 Q 408.86,262.52 419.14,258.23 Q 421.48,257.25 423.63,256.92 Q 425.96,256.55 428.31,256.31 Q 431.10,256.04 434.25,252.71 L 439.50,251.71 Z"/>
<path fill="#6e6d6c" d="M 434.25,252.71 Q 431.10,256.04 428.31,256.31 Q 425.96,256.55 423.63,256.92 Q 421.48,257.25 419.14,258.23 Q 408.86,262.52 398.27,265.97 Q 394.19,267.30 390.45,269.08 Q 385.15,271.58 382.75,272.50 Q 368.18,278.05 358.81,283.56 Q 357.28,284.46 356.21,284.90 Q 353.79,285.90 353.55,286.04 Q 343.30,291.91 333.18,297.98 Q 332.28,298.52 327.54,301.83 Q 325.24,303.44 321.75,305.50 Q 314.88,309.56 301.63,320.87 Q 274.39,344.12 258.03,375.98 Q 249.12,393.33 246.99,412.75 Q 245.89,422.85 245.50,433.00 Q 244.89,433.89 246.00,434.04 L 243.25,434.29 Q 241.67,433.96 242.25,432.69 Q 242.49,432.16 242.48,431.75 Q 242.30,426.95 243.25,417.50 Q 245.57,394.46 255.06,375.78 Q 270.54,345.36 296.13,323.16 Q 302.03,318.05 306.19,314.64 Q 311.29,310.45 316.76,306.77 Q 326.80,300.00 326.97,299.88 Q 345.02,287.40 364.79,277.76 Q 367.51,276.43 377.75,272.50 Q 380.26,271.53 388.86,267.20 Q 390.74,266.26 392.81,265.79 Q 394.89,265.31 396.96,264.82 Q 399.99,264.09 402.91,262.64 Q 405.35,261.42 407.80,260.21 Q 410.23,259.01 412.90,258.35 Q 417.80,257.16 422.69,255.94 Q 423.91,255.63 424.00,254.71 L 434.25,252.71 Z"/>
<path fill="#1f1f1f" d="M 605.00,254.46 Q 654.09,263.63 694.44,283.31 Q 733.76,302.49 771.75,334.04 L 788.50,348.96 Q 787.65,350.49 788.75,351.50 Q 799.53,361.37 806.15,368.17 Q 807.60,369.66 810.37,373.25 Q 812.39,375.88 814.78,378.22 Q 818.87,382.23 822.21,386.86 Q 823.07,388.06 824.96,389.42 Q 826.89,390.82 827.93,392.93 A 0.81,0.81 -15.1 0 0 828.70,393.37 Q 831.46,393.19 830.92,395.23 Q 830.22,397.89 832.05,399.16 Q 834.31,400.73 834.49,400.93 Q 837.32,404.10 839.01,408.03 Q 840.22,410.85 841.94,412.31 Q 845.47,415.32 846.96,416.83 A 1.85,1.49 -79.6 0 1 847.42,417.68 Q 848.11,420.65 850.23,422.75 Q 851.53,424.03 852.15,424.85 Q 853.01,426.00 853.97,427.07 A 1.00,0.80 -22.4 0 0 854.79,427.31 Q 855.45,427.21 855.39,427.78 A 1.20,0.64 -73.2 0 0 855.56,428.63 Q 856.33,429.47 857.43,429.73 A 0.97,0.86 -2.6 0 1 858.11,430.28 Q 858.63,431.59 860.00,434.50 Q 860.90,436.41 862.52,437.08 Q 863.05,437.30 863.34,437.62 Q 866.85,441.41 869.97,445.53 Q 870.22,445.86 870.20,446.17 Q 870.18,446.57 869.94,446.86 A 0.66,0.55 -44.9 0 0 869.87,447.59 Q 870.94,449.15 869.27,449.30 Q 868.49,449.38 867.87,449.55 Q 866.18,450.02 864.62,449.37 Q 862.42,448.45 862.27,448.41 Q 859.60,447.61 857.11,446.39 Q 853.56,444.63 852.07,444.16 Q 844.09,441.62 835.66,441.50 Q 833.82,441.47 831.97,440.83 Q 830.16,440.21 828.30,439.79 A 1.64,1.54 72.6 0 1 827.47,439.32 Q 824.77,436.55 821.09,435.78 Q 819.48,435.44 816.96,436.05 Q 813.95,436.77 812.75,436.50 Q 807.88,435.40 802.93,434.86 Q 794.67,433.95 794.60,433.94 Q 789.57,433.28 784.54,432.64 Q 779.19,431.95 774.44,431.76 Q 742.39,430.42 710.60,434.55 Q 705.80,435.18 700.54,436.66 Q 695.60,438.05 690.65,439.40 Q 690.62,439.41 686.67,440.02 Q 684.60,440.34 682.83,441.64 A 1.77,1.75 -65.1 0 1 681.94,441.97 Q 675.22,442.60 672.50,448.79 Q 670.30,446.54 667.25,445.71 Q 668.11,442.71 664.50,443.04 Q 665.91,442.18 667.56,442.44 A 2.25,1.45 10.1 0 0 669.94,441.44 Q 670.11,440.69 670.36,441.41 Q 670.44,441.67 670.48,441.41 Q 670.71,439.50 670.08,437.76 Q 669.18,435.27 669.15,435.15 Q 663.52,413.56 657.94,400.56 Q 654.29,392.07 652.69,384.86 Q 651.61,380.02 650.84,377.75 Q 649.67,374.27 648.40,370.81 Q 647.03,367.07 645.45,364.55 Q 643.48,361.41 641.25,359.00 Q 639.72,357.35 639.07,355.55 Q 638.50,353.96 638.46,353.87 Q 631.76,338.46 623.21,324.00 Q 619.57,317.85 615.63,310.31 Q 614.71,308.55 616.61,309.13 Q 617.98,309.55 617.83,307.13 Q 617.83,307.03 617.86,306.51 Q 617.90,305.90 617.37,305.54 A 1.06,0.95 17.3 0 1 616.94,304.82 L 616.90,304.32 A 0.48,0.46 84.4 0 1 617.31,303.80 Q 618.35,303.69 619.81,302.94 Q 621.11,302.27 620.78,301.27 A 1.19,0.94 55.7 0 1 620.84,300.39 Q 621.79,298.76 620.85,297.22 A 0.55,0.51 55.9 0 1 620.96,296.51 L 622.44,295.40 A 0.89,0.89 53.6 0 0 622.62,294.16 Q 621.42,292.56 622.40,291.25 Q 623.08,290.34 623.08,289.93 Q 623.08,289.32 622.66,288.80 Q 622.34,288.39 622.22,287.94 Q 621.79,286.32 620.05,286.58 A 0.73,0.56 -5.8 0 0 619.43,287.16 Q 619.43,287.67 620.20,287.78 A 0.69,0.59 1.9 0 1 620.77,288.30 Q 621.08,290.86 618.49,291.42 A 1.08,0.92 3.9 0 0 617.77,291.95 Q 616.72,294.20 616.69,297.81 Q 616.65,301.26 613.16,299.77 A 0.66,0.66 30.3 0 0 612.38,299.97 Q 611.53,301.09 611.87,302.22 A 1.51,0.56 65.4 0 1 611.94,303.17 Q 611.65,303.91 611.06,302.94 Q 610.04,301.25 608.98,300.55 A 0.83,0.44 -80.5 0 1 608.76,299.89 Q 608.77,299.60 608.40,299.38 Q 604.78,297.29 605.75,293.96 Q 606.67,290.80 606.71,290.38 Q 607.35,284.60 607.25,283.00 Q 606.91,277.65 607.57,272.33 Q 607.58,272.24 607.58,269.68 Q 607.58,267.54 609.75,267.00 Q 612.44,266.33 615.14,268.08 Q 615.88,268.55 616.49,268.59 Q 617.00,268.62 617.50,268.57 Q 618.00,268.52 618.49,268.61 Q 621.41,269.15 622.41,266.29 A 1.55,1.01 -15.6 0 1 623.01,265.61 Q 623.82,265.09 623.15,264.04 Q 622.14,262.45 622.07,261.56 A 1.60,1.60 83.4 0 0 620.22,260.09 Q 616.16,260.75 612.68,260.26 Q 610.74,259.99 608.57,258.48 Q 606.68,257.17 604.73,255.95 A 0.75,0.59 26.7 0 1 604.38,255.20 Q 604.53,254.74 605.00,254.46 Z"/>
<path fill="#646362" d="M 424.00,254.71 Q 423.91,255.63 422.69,255.94 Q 417.80,257.16 412.90,258.35 Q 410.23,259.01 407.80,260.21 Q 405.35,261.42 402.91,262.64 Q 399.99,264.09 396.96,264.82 Q 394.89,265.31 392.81,265.79 Q 390.74,266.26 388.86,267.20 Q 380.26,271.53 377.75,272.50 Q 367.51,276.43 364.79,277.76 Q 345.02,287.40 326.97,299.88 Q 326.80,300.00 316.76,306.77 Q 311.29,310.45 306.19,314.64 Q 302.03,318.05 296.13,323.16 Q 270.54,345.36 255.06,375.78 Q 245.57,394.46 243.25,417.50 Q 242.30,426.95 242.48,431.75 Q 242.49,432.16 242.25,432.69 Q 241.67,433.96 243.25,434.29 L 228.75,435.96 Q 227.54,415.17 233.91,395.34 Q 236.14,388.41 238.93,381.68 Q 241.74,374.89 245.54,368.64 Q 246.92,366.37 253.41,356.38 Q 260.75,345.07 269.19,335.69 Q 272.76,331.71 275.32,328.64 Q 279.00,324.23 281.74,321.91 Q 288.59,316.13 296.32,311.57 Q 297.30,310.99 299.44,309.10 Q 300.67,308.01 302.69,306.69 Q 307.73,303.38 312.85,300.22 Q 313.90,299.57 316.59,297.12 Q 318.50,295.39 321.12,294.35 Q 321.84,294.07 322.45,293.58 Q 326.29,290.53 329.70,288.65 Q 329.80,288.59 331.81,287.31 Q 333.72,286.08 336.00,286.25 Q 336.86,286.32 337.16,285.78 Q 337.50,285.19 337.73,285.05 Q 339.91,283.71 342.31,282.91 Q 345.42,281.88 346.95,281.04 Q 351.12,278.74 355.34,276.50 Q 355.43,276.46 356.60,276.04 Q 357.65,275.68 357.71,274.50 Q 389.91,261.45 424.00,254.71 Z"/>
<path fill="#a6a4a1" d="M 452.25,262.54 L 448.79,265.00 Q 448.00,263.86 446.81,264.31 Q 429.29,271.04 409.31,280.06 Q 398.34,285.02 391.55,288.58 Q 391.47,288.62 383.66,292.42 Q 380.16,294.13 376.00,296.75 Q 359.97,306.86 354.29,310.55 Q 352.83,311.50 350.25,313.55 Q 348.27,315.12 346.16,316.50 Q 341.72,319.38 340.01,320.80 Q 330.93,328.29 322.97,336.97 Q 311.97,348.96 304.81,363.36 Q 300.18,372.68 297.18,381.84 Q 293.53,393.01 293.00,403.75 Q 292.35,416.75 291.77,429.76 A 1.31,1.06 -24.8 0 1 291.37,430.57 Q 290.09,431.77 292.00,432.46 L 287.50,432.29 Q 289.45,431.35 289.50,429.25 Q 289.75,418.23 290.30,408.73 Q 290.98,397.12 292.93,388.93 Q 298.12,367.12 310.81,349.31 Q 321.73,334.01 337.69,321.04 Q 338.46,320.41 343.02,317.26 Q 344.82,316.01 346.47,314.56 Q 348.41,312.85 349.90,311.89 Q 358.13,306.64 359.75,305.50 Q 362.65,303.46 364.83,302.19 Q 365.58,301.76 367.21,300.26 Q 368.01,299.53 369.01,299.09 Q 370.44,298.47 370.89,298.19 Q 384.27,289.87 398.65,283.44 Q 399.47,283.08 403.02,281.06 Q 404.48,280.23 406.09,279.67 Q 408.46,278.84 409.22,278.51 Q 414.70,276.11 420.30,274.03 Q 420.84,273.83 421.21,273.40 Q 421.60,272.96 421.97,272.82 Q 429.45,269.88 437.06,267.31 Q 439.36,266.54 445.28,263.81 Q 445.38,263.77 447.55,262.42 Q 449.74,261.05 452.25,262.54 Z"/>
<path fill="#aaa8a5" d="M 448.79,265.00 L 445.29,267.75 Q 442.77,267.25 439.00,268.75 Q 433.69,270.86 428.45,273.16 Q 423.06,275.53 417.91,277.52 Q 407.48,281.57 404.19,283.69 Q 401.91,285.15 395.69,288.19 Q 391.63,290.17 372.73,301.23 Q 371.86,301.74 370.05,303.10 Q 368.73,304.09 367.25,304.82 Q 363.72,306.57 362.95,307.06 Q 337.71,323.42 320.94,343.94 Q 305.54,362.78 300.01,387.66 Q 298.28,395.50 297.60,407.48 Q 296.84,420.94 297.00,430.50 Q 297.02,431.96 296.50,432.46 L 292.00,432.46 Q 290.09,431.77 291.37,430.57 A 1.31,1.06 -24.8 0 0 291.77,429.76 Q 292.35,416.75 293.00,403.75 Q 293.53,393.01 297.18,381.84 Q 300.18,372.68 304.81,363.36 Q 311.97,348.96 322.97,336.97 Q 330.93,328.29 340.01,320.80 Q 341.72,319.38 346.16,316.50 Q 348.27,315.12 350.25,313.55 Q 352.83,311.50 354.29,310.55 Q 359.97,306.86 376.00,296.75 Q 380.16,294.13 383.66,292.42 Q 391.47,288.62 391.55,288.58 Q 398.34,285.02 409.31,280.06 Q 429.29,271.04 446.81,264.31 Q 448.00,263.86 448.79,265.00 Z"/>
<path fill="#afada9" d="M 445.29,267.75 L 443.04,269.75 Q 442.28,268.14 440.54,269.07 Q 433.73,272.69 426.44,275.19 Q 422.31,276.60 403.56,285.56 Q 403.04,285.82 402.70,286.26 A 1.91,1.01 -67.7 0 1 401.97,286.87 Q 398.26,288.37 391.31,292.31 Q 367.97,305.56 350.89,318.12 Q 343.40,323.63 334.06,332.81 Q 312.06,354.44 304.25,383.25 Q 303.68,385.36 302.20,392.58 Q 301.18,397.55 300.85,402.00 Q 299.77,416.81 300.73,431.65 A 0.50,0.48 6.9 0 0 301.09,432.09 Q 302.42,432.47 300.75,432.71 L 296.50,432.46 Q 297.02,431.96 297.00,430.50 Q 296.84,420.94 297.60,407.48 Q 298.28,395.50 300.01,387.66 Q 305.54,362.78 320.94,343.94 Q 337.71,323.42 362.95,307.06 Q 363.72,306.57 367.25,304.82 Q 368.73,304.09 370.05,303.10 Q 371.86,301.74 372.73,301.23 Q 391.63,290.17 395.69,288.19 Q 401.91,285.15 404.19,283.69 Q 407.48,281.57 417.91,277.52 Q 423.06,275.53 428.45,273.16 Q 433.69,270.86 439.00,268.75 Q 442.77,267.25 445.29,267.75 Z"/>
<path fill="#b4b1ae" d="M 443.04,269.75 L 438.54,273.75 Q 435.79,273.25 433.42,274.37 Q 429.86,276.04 429.74,276.09 Q 426.80,277.14 424.03,278.56 Q 420.34,280.45 418.43,281.24 Q 394.16,291.29 374.25,304.25 Q 365.98,309.63 364.31,310.56 Q 363.88,310.81 363.47,311.55 Q 363.21,312.02 362.83,312.29 Q 347.14,323.01 334.02,336.76 Q 330.42,340.54 328.75,343.25 Q 327.46,345.35 326.33,346.81 Q 324.19,349.61 324.15,349.66 Q 312.61,366.35 309.00,384.75 Q 305.20,404.09 306.44,426.88 Q 306.44,427.01 306.77,429.07 Q 307.15,431.41 305.25,432.96 L 300.75,432.71 Q 302.42,432.47 301.09,432.09 A 0.50,0.48 6.9 0 1 300.73,431.65 Q 299.77,416.81 300.85,402.00 Q 301.18,397.55 302.20,392.58 Q 303.68,385.36 304.25,383.25 Q 312.06,354.44 334.06,332.81 Q 343.40,323.63 350.89,318.12 Q 367.97,305.56 391.31,292.31 Q 398.26,288.37 401.97,286.87 A 1.91,1.01 -67.7 0 0 402.70,286.26 Q 403.04,285.82 403.56,285.56 Q 422.31,276.60 426.44,275.19 Q 433.73,272.69 440.54,269.07 Q 442.28,268.14 443.04,269.75 Z"/>
<path fill="#b8b6b2" d="M 438.54,273.75 L 436.04,276.00 Q 433.23,275.29 430.93,276.57 Q 428.07,278.18 427.99,278.21 Q 404.02,288.22 381.77,301.59 Q 377.79,303.98 373.04,307.32 Q 368.77,310.33 364.48,313.33 Q 356.68,318.79 352.01,322.80 Q 343.22,330.34 335.81,338.56 Q 334.15,340.41 332.82,341.74 Q 331.06,343.52 329.97,345.02 Q 324.16,353.06 323.06,354.81 Q 318.47,362.11 315.19,371.76 Q 313.26,377.47 312.83,379.23 Q 312.05,382.42 311.50,387.00 Q 309.77,401.28 309.53,410.97 Q 309.52,411.23 309.13,420.50 Q 308.88,426.41 309.69,432.32 A 0.72,0.62 72.8 0 1 309.39,433.00 L 309.00,433.21 L 305.25,432.96 Q 307.15,431.41 306.77,429.07 Q 306.44,427.01 306.44,426.88 Q 305.20,404.09 309.00,384.75 Q 312.61,366.35 324.15,349.66 Q 324.19,349.61 326.33,346.81 Q 327.46,345.35 328.75,343.25 Q 330.42,340.54 334.02,336.76 Q 347.14,323.01 362.83,312.29 Q 363.21,312.02 363.47,311.55 Q 363.88,310.81 364.31,310.56 Q 365.98,309.63 374.25,304.25 Q 394.16,291.29 418.43,281.24 Q 420.34,280.45 424.03,278.56 Q 426.80,277.14 429.74,276.09 Q 429.86,276.04 433.42,274.37 Q 435.79,273.25 438.54,273.75 Z"/>
<path fill="#535352" d="M 357.71,274.50 Q 357.65,275.68 356.60,276.04 Q 355.43,276.46 355.34,276.50 Q 351.12,278.74 346.95,281.04 Q 345.42,281.88 342.31,282.91 Q 339.91,283.71 337.73,285.05 Q 337.50,285.19 337.16,285.78 Q 336.86,286.32 336.00,286.25 Q 333.72,286.08 331.81,287.31 Q 329.80,288.59 329.70,288.65 Q 326.29,290.53 322.45,293.58 Q 321.84,294.07 321.12,294.35 Q 318.50,295.39 316.59,297.12 Q 313.90,299.57 312.85,300.22 Q 307.73,303.38 302.69,306.69 Q 300.67,308.01 299.44,309.10 Q 297.30,310.99 296.32,311.57 Q 288.59,316.13 281.74,321.91 Q 279.00,324.23 275.32,328.64 Q 272.76,331.71 269.19,335.69 Q 260.75,345.07 253.41,356.38 Q 246.92,366.37 245.54,368.64 Q 241.74,374.89 238.93,381.68 Q 236.14,388.41 233.91,395.34 Q 227.54,415.17 228.75,435.96 L 215.25,438.29 Q 214.38,438.18 214.37,437.31 Q 214.35,433.94 214.22,430.57 Q 214.07,426.70 214.40,423.83 Q 216.06,409.24 221.14,395.42 Q 226.17,381.75 230.56,372.81 Q 233.75,366.32 239.34,358.46 Q 239.39,358.40 241.83,355.68 Q 244.07,353.21 243.50,349.71 Q 276.21,318.70 314.97,295.71 Q 335.55,283.50 357.71,274.50 Z"/>
<path fill="#bcbab6" d="M 436.04,276.00 L 434.29,277.75 Q 434.18,276.78 433.31,277.07 Q 426.02,279.53 419.31,283.31 Q 414.76,285.88 405.38,290.43 Q 396.74,294.62 391.52,297.71 Q 368.88,311.14 349.10,328.61 Q 317.78,356.30 315.02,397.34 Q 314.80,400.51 314.22,414.15 Q 313.82,423.80 314.50,431.00 Q 314.74,433.53 313.00,433.46 L 309.00,433.21 L 309.39,433.00 A 0.72,0.62 72.8 0 0 309.69,432.32 Q 308.88,426.41 309.13,420.50 Q 309.52,411.23 309.53,410.97 Q 309.77,401.28 311.50,387.00 Q 312.05,382.42 312.83,379.23 Q 313.26,377.47 315.19,371.76 Q 318.47,362.11 323.06,354.81 Q 324.16,353.06 329.97,345.02 Q 331.06,343.52 332.82,341.74 Q 334.15,340.41 335.81,338.56 Q 343.22,330.34 352.01,322.80 Q 356.68,318.79 364.48,313.33 Q 368.77,310.33 373.04,307.32 Q 377.79,303.98 381.77,301.59 Q 404.02,288.22 427.99,278.21 Q 428.07,278.18 430.93,276.57 Q 433.23,275.29 436.04,276.00 Z"/>
<path fill="#c9c6c2" d="M 434.29,277.75 L 423.50,289.54 Q 422.85,288.69 421.77,289.06 Q 419.85,289.71 418.36,291.93 Q 417.80,292.76 416.91,293.20 Q 395.60,303.88 377.31,318.31 Q 376.42,319.01 375.66,319.83 Q 374.77,320.80 374.04,321.35 Q 360.80,331.23 351.06,346.56 Q 345.61,355.14 342.14,363.55 Q 339.04,371.08 337.14,381.81 Q 335.23,392.59 335.06,400.69 Q 334.87,410.56 336.71,432.26 A 1.14,0.91 70.8 0 1 336.41,433.12 L 333.50,435.71 L 313.00,433.46 Q 314.74,433.53 314.50,431.00 Q 313.82,423.80 314.22,414.15 Q 314.80,400.51 315.02,397.34 Q 317.78,356.30 349.10,328.61 Q 368.88,311.14 391.52,297.71 Q 396.74,294.62 405.38,290.43 Q 414.76,285.88 419.31,283.31 Q 426.02,279.53 433.31,277.07 Q 434.18,276.78 434.29,277.75 Z"/>
<path fill="#e1ddd9" d="M 423.50,289.54 Q 400.03,319.20 385.37,354.09 Q 367.92,395.64 358.60,439.75 A 0.52,0.51 -79.1 0 1 358.01,440.16 L 333.50,435.71 L 336.41,433.12 A 1.14,0.91 70.8 0 0 336.71,432.26 Q 334.87,410.56 335.06,400.69 Q 335.23,392.59 337.14,381.81 Q 339.04,371.08 342.14,363.55 Q 345.61,355.14 351.06,346.56 Q 360.80,331.23 374.04,321.35 Q 374.77,320.80 375.66,319.83 Q 376.42,319.01 377.31,318.31 Q 395.60,303.88 416.91,293.20 Q 417.80,292.76 418.36,291.93 Q 419.85,289.71 421.77,289.06 Q 422.85,288.69 423.50,289.54 Z"/>
<path fill="#201a16" d="M 788.50,348.96 Q 834.01,392.19 871.81,445.44 Q 880.20,457.25 884.81,465.09 Q 884.95,465.33 884.96,465.56 Q 885.02,466.56 884.28,465.72 Q 881.09,462.10 878.37,458.10 Q 877.48,456.78 876.00,456.21 Q 871.63,454.29 861.00,451.25 Q 833.58,443.41 805.24,440.00 Q 804.25,439.88 804.88,440.65 Q 818.41,457.30 830.44,475.31 Q 833.68,480.18 836.96,487.25 Q 838.97,492.32 841.02,497.38 Q 842.03,499.88 839.96,498.00 L 836.29,491.25 Q 835.36,490.51 832.75,490.50 Q 793.08,490.34 765.00,492.54 Q 734.08,494.81 700.94,500.69 Q 669.01,506.35 640.20,518.31 A 0.68,0.62 -17.0 0 0 639.79,519.00 L 641.21,527.25 Q 641.41,529.09 640.26,528.66 A 1.02,0.97 -87.6 0 1 639.66,527.97 L 637.73,520.14 A 1.34,1.18 87.7 0 0 636.81,519.18 Q 581.53,506.97 525.75,505.75 A 0.25,0.24 -88.9 0 0 525.50,506.00 Q 525.63,553.88 525.25,601.75 Q 525.24,603.30 526.50,603.54 Q 524.78,606.65 524.88,610.25 Q 525.00,614.63 525.00,619.69 A 1.78,1.68 -89.7 0 1 523.30,621.47 L 513.69,621.35 A 0.60,0.56 87.7 0 1 513.14,620.81 Q 512.67,616.16 512.75,613.00 Q 512.93,605.67 511.75,599.46 Q 513.37,599.77 512.98,598.54 Q 512.75,597.82 512.75,597.41 Q 512.75,561.23 512.75,525.05 Q 512.75,524.93 512.90,523.46 Q 513.11,521.30 510.50,522.04 Q 509.16,521.99 510.26,521.29 Q 513.97,518.91 511.99,514.95 A 1.12,0.85 -3.5 0 0 511.24,514.45 L 503.25,513.04 L 512.04,512.74 A 0.74,0.72 -1.2 0 0 512.75,512.02 L 512.75,506.51 A 0.76,0.76 -0.4 0 0 511.98,505.75 Q 461.76,505.88 413.71,515.25 L 395.16,519.02 A 1.35,1.23 -88.0 0 0 394.19,520.01 L 392.43,527.33 A 1.71,1.32 82.7 0 1 391.95,528.15 Q 390.83,529.10 390.61,527.92 Q 390.53,527.47 390.69,526.71 Q 391.50,522.75 392.23,518.88 A 0.70,0.70 15.9 0 0 391.80,518.11 Q 357.49,505.02 321.50,499.50 Q 291.16,494.85 271.75,493.21 Q 244.44,490.60 217.00,490.29 Q 208.50,490.10 200.00,490.44 Q 197.02,490.55 196.00,493.25 Q 194.81,496.40 192.71,499.00 L 192.27,498.66 A 0.84,0.49 -63.6 0 1 192.21,497.80 L 197.29,485.50 Q 210.62,462.34 228.00,442.04 Q 229.50,441.49 230.74,440.50 Q 233.43,438.34 235.00,441.21 Q 232.66,440.98 231.31,442.56 Q 214.26,462.55 200.07,486.01 Q 199.81,486.44 200.31,486.42 Q 237.74,485.36 275.00,489.03 Q 296.31,491.13 317.50,494.21 Q 355.95,500.17 392.47,513.52 A 0.45,0.45 17.0 0 0 393.06,513.21 Q 401.60,478.65 413.96,445.25 L 418.04,435.15 Q 418.26,434.61 417.70,434.72 L 398.75,438.21 Q 385.26,440.48 369.25,444.50 Q 365.62,445.41 363.25,446.54 Q 361.99,445.67 362.94,444.38 A 1.48,1.08 4.3 0 1 363.74,443.88 Q 389.03,437.48 414.83,433.60 Q 414.91,433.59 416.13,433.25 Q 417.21,432.95 417.77,433.81 A 0.88,0.68 66.8 0 0 418.50,434.22 Q 419.66,434.11 420.25,433.50 Q 421.71,431.99 423.44,431.61 Q 426.29,430.99 426.47,430.93 Q 428.42,430.29 430.47,430.20 Q 432.91,430.10 434.44,429.69 Q 437.94,428.76 441.00,428.50 Q 457.80,427.10 474.58,425.53 Q 479.41,425.08 485.95,424.82 Q 491.65,424.59 497.34,424.17 Q 499.24,424.03 501.65,424.24 Q 504.41,424.49 506.00,424.25 Q 508.23,423.91 508.50,425.71 Q 466.06,426.46 423.61,433.53 A 2.01,2.01 6.1 0 0 422.09,434.75 Q 406.23,473.24 396.69,513.69 A 0.31,0.30 0.5 0 0 397.06,514.06 Q 430.79,506.43 465.25,503.50 Q 483.09,501.98 511.94,501.20 A 0.63,0.60 4.5 0 0 512.54,500.71 Q 512.90,498.75 512.78,496.78 Q 512.56,493.16 512.56,493.10 Q 512.48,459.42 512.46,425.75 L 512.73,425.38 A 1.05,0.65 12.3 0 1 513.52,425.10 L 524.25,425.46 Q 524.90,425.72 525.29,426.25 L 525.51,500.77 A 0.97,0.97 -45.0 0 0 526.47,501.73 Q 579.09,502.40 629.25,513.25 Q 633.47,514.16 635.79,514.00 Q 637.26,513.26 638.96,513.25 Q 639.59,513.65 640.69,513.19 Q 662.97,503.87 689.22,498.60 Q 750.49,486.29 813.00,486.12 Q 822.25,486.10 832.98,485.98 Q 833.49,485.98 833.23,485.54 Q 818.29,460.75 800.10,439.99 A 2.41,2.41 72.8 0 0 798.57,439.18 Q 750.33,433.62 703.82,440.14 Q 694.01,441.51 684.49,444.20 Q 679.92,445.48 675.88,447.77 A 1.30,1.23 68.7 0 0 675.31,449.18 L 677.10,456.70 A 0.38,0.35 88.0 0 1 676.70,457.16 Q 675.97,457.02 675.75,456.25 Q 674.49,451.92 672.50,448.79 Q 675.22,442.60 681.94,441.97 A 1.77,1.75 -65.1 0 0 682.83,441.64 Q 684.60,440.34 686.67,440.02 Q 690.62,439.41 690.65,439.40 Q 695.60,438.05 700.54,436.66 Q 705.80,435.18 710.60,434.55 Q 742.39,430.42 774.44,431.76 Q 779.19,431.95 784.54,432.64 Q 789.57,433.28 794.60,433.94 Q 794.67,433.95 802.93,434.86 Q 807.88,435.40 812.75,436.50 Q 813.95,436.77 816.96,436.05 Q 819.48,435.44 821.09,435.78 Q 824.77,436.55 827.47,439.32 A 1.64,1.54 72.6 0 0 828.30,439.79 Q 830.16,440.21 831.97,440.83 Q 833.82,441.47 835.66,441.50 Q 844.09,441.62 852.07,444.16 Q 853.56,444.63 857.11,446.39 Q 859.60,447.61 862.27,448.41 Q 862.42,448.45 864.62,449.37 Q 866.18,450.02 867.87,449.55 Q 868.49,449.38 869.27,449.30 Q 870.94,449.15 869.87,447.59 A 0.66,0.55 -44.9 0 1 869.94,446.86 Q 870.18,446.57 870.20,446.17 Q 870.22,445.86 869.97,445.53 Q 866.85,441.41 863.34,437.62 Q 863.05,437.30 862.52,437.08 Q 860.90,436.41 860.00,434.50 Q 858.63,431.59 858.11,430.28 A 0.97,0.86 -2.6 0 0 857.43,429.73 Q 856.33,429.47 855.56,428.63 A 1.20,0.64 -73.2 0 1 855.39,427.78 Q 855.45,427.21 854.79,427.31 A 1.00,0.80 -22.4 0 1 853.97,427.07 Q 853.01,426.00 852.15,424.85 Q 851.53,424.03 850.23,422.75 Q 848.11,420.65 847.42,417.68 A 1.85,1.49 -79.6 0 0 846.96,416.83 Q 845.47,415.32 841.94,412.31 Q 840.22,410.85 839.01,408.03 Q 837.32,404.10 834.49,400.93 Q 834.31,400.73 832.05,399.16 Q 830.22,397.89 830.92,395.23 Q 831.46,393.19 828.70,393.37 A 0.81,0.81 -15.1 0 1 827.93,392.93 Q 826.89,390.82 824.96,389.42 Q 823.07,388.06 822.21,386.86 Q 818.87,382.23 814.78,378.22 Q 812.39,375.88 810.37,373.25 Q 807.60,369.66 806.15,368.17 Q 799.53,361.37 788.75,351.50 Q 787.65,350.49 788.50,348.96 Z"/>
<path fill="#474646" d="M 243.50,349.71 Q 244.07,353.21 241.83,355.68 Q 239.39,358.40 239.34,358.46 Q 233.75,366.32 230.56,372.81 Q 226.17,381.75 221.14,395.42 Q 216.06,409.24 214.40,423.83 Q 214.07,426.70 214.22,430.57 Q 214.35,433.94 214.37,437.31 Q 214.38,438.18 215.25,438.29 L 210.54,439.00 Q 209.49,425.85 212.19,413.94 Q 216.23,396.08 224.50,378.66 Q 224.74,378.15 227.42,371.54 Q 228.89,367.93 231.21,364.76 Q 232.40,363.14 233.30,361.39 Q 234.52,359.00 235.56,358.06 Q 236.15,357.54 235.50,357.46 L 243.50,349.71 Z"/>
<path fill="#414141" d="M 235.50,357.46 Q 236.15,357.54 235.56,358.06 Q 234.52,359.00 233.30,361.39 Q 232.40,363.14 231.21,364.76 Q 228.89,367.93 227.42,371.54 Q 224.74,378.15 224.50,378.66 Q 216.23,396.08 212.19,413.94 Q 209.49,425.85 210.54,439.00 L 208.00,439.46 Q 206.89,438.51 206.81,436.19 Q 206.42,424.42 208.59,414.03 Q 209.46,409.85 211.92,400.97 Q 214.25,392.57 216.50,388.25 Q 218.75,383.94 219.89,381.16 Q 221.07,378.29 222.36,376.29 Q 224.20,373.43 224.94,371.44 Q 226.14,368.18 227.75,366.39 Q 227.98,366.13 228.01,365.91 Q 228.07,365.43 227.50,365.46 L 230.50,362.29 L 235.50,357.46 Z"/>
<path fill="#3b3b3b" d="M 227.50,365.46 Q 228.07,365.43 228.01,365.91 Q 227.98,366.13 227.75,366.39 Q 226.14,368.18 224.94,371.44 Q 224.20,373.43 222.36,376.29 Q 221.07,378.29 219.89,381.16 Q 218.75,383.94 216.50,388.25 Q 214.25,392.57 211.92,400.97 Q 209.46,409.85 208.59,414.03 Q 206.42,424.42 206.81,436.19 Q 206.89,438.51 208.00,439.46 L 202.86,440.40 A 1.63,1.56 83.5 0 1 201.02,438.87 Q 200.16,423.59 203.56,409.06 Q 204.51,405.03 208.15,394.48 Q 208.50,393.47 208.93,390.93 Q 209.24,389.10 210.07,387.43 Q 210.23,387.11 212.26,384.82 Q 213.80,383.08 213.50,380.46 L 227.50,365.46 Z"/>
<path fill="#351d11" d="M 664.50,443.04 Q 668.11,442.71 667.25,445.71 Q 640.90,438.82 614.23,434.54 Q 613.57,434.43 613.82,435.05 Q 626.83,467.61 636.06,500.94 Q 638.17,508.54 638.96,513.25 Q 637.26,513.26 635.79,514.00 Q 625.83,472.84 609.49,433.94 A 1.06,1.04 -6.1 0 0 608.70,433.31 Q 568.13,426.42 527.00,425.75 Q 525.65,425.73 525.29,426.25 Q 524.90,425.72 524.25,425.46 Q 525.65,424.34 527.00,424.25 Q 531.62,423.96 537.02,424.31 Q 542.60,424.67 547.00,424.75 Q 555.15,424.89 563.25,426.00 Q 566.47,426.44 574.00,426.95 Q 574.93,427.01 583.46,427.90 Q 588.21,428.39 593.00,428.25 Q 593.45,428.24 595.56,428.94 Q 600.18,430.48 605.01,430.71 Q 606.67,430.79 608.36,431.40 Q 610.01,432.00 611.73,432.35 Q 611.81,432.37 613.23,432.76 Q 614.79,433.19 616.30,432.48 A 1.36,1.16 -44.8 0 1 617.23,432.41 Q 623.80,434.60 630.75,434.51 A 1.72,0.79 43.9 0 1 631.64,434.82 L 634.04,436.30 A 1.73,0.61 -10.2 0 0 635.01,436.46 Q 636.79,436.40 640.25,437.25 Q 652.36,440.22 664.50,443.04 Z"/>
<path fill="#00bbf9" d="M 508.50,425.71 L 512.46,425.75 Q 512.48,459.42 512.56,493.10 Q 512.56,493.16 512.78,496.78 Q 512.90,498.75 512.54,500.71 A 0.63,0.60 4.5 0 1 511.94,501.20 Q 483.09,501.98 465.25,503.50 Q 430.79,506.43 397.06,514.06 A 0.31,0.30 0.5 0 1 396.69,513.69 Q 406.23,473.24 422.09,434.75 A 2.01,2.01 6.1 0 1 423.61,433.53 Q 466.06,426.46 508.50,425.71 Z"/>
<path fill="#fee440" d="M 635.79,514.00 Q 633.47,514.16 629.25,513.25 Q 579.09,502.40 526.47,501.73 A 0.97,0.97 -45.0 0 1 525.51,500.77 L 525.29,426.25 Q 525.65,425.73 527.00,425.75 Q 568.13,426.42 608.70,433.31 A 1.06,1.04 -6.1 0 1 609.49,433.94 Q 625.83,472.84 635.79,514.00 Z"/>
<path fill="#fee440" d="M 667.25,445.71 Q 670.30,446.54 672.50,448.79 Q 674.49,451.92 675.75,456.25 Q 675.97,457.02 676.70,457.16 A 0.38,0.35 88.0 0 0 677.10,456.70 L 675.31,449.18 A 1.30,1.23 68.7 0 1 675.88,447.77 Q 679.92,445.48 684.49,444.20 Q 694.01,441.51 703.82,440.14 Q 750.33,433.62 798.57,439.18 A 2.41,2.41 72.8 0 1 800.10,439.99 Q 818.29,460.75 833.23,485.54 Q 833.49,485.98 832.98,485.98 Q 822.25,486.10 813.00,486.12 Q 750.49,486.29 689.22,498.60 Q 662.97,503.87 640.69,513.19 Q 639.59,513.65 638.96,513.25 Q 638.17,508.54 636.06,500.94 Q 626.83,467.61 613.82,435.05 Q 613.57,434.43 614.23,434.54 Q 640.90,438.82 667.25,445.71 Z"/>
<path fill="#00bbf9" d="M 413.96,445.25 Q 413.16,444.67 413.63,444.08 Q 413.96,443.68 414.06,443.25 L 415.41,437.74 A 0.83,0.72 -86.7 0 0 414.61,436.71 L 402.48,438.88 A 1.74,1.46 -34.0 0 1 401.54,438.78 Q 400.21,438.21 398.75,438.21 L 417.70,434.72 Q 418.26,434.61 418.04,435.15 L 413.96,445.25 Z"/>
<path fill="#00bbf9" d="M 413.96,445.25 Q 401.60,478.65 393.06,513.21 A 0.45,0.45 17.0 0 1 392.47,513.52 Q 355.95,500.17 317.50,494.21 Q 317.87,492.71 316.06,492.69 Q 312.99,492.66 311.51,490.43 A 1.88,1.09 72.6 0 0 310.80,489.78 L 307.03,488.12 A 1.15,0.68 13.9 0 1 306.37,487.47 L 305.56,483.50 Q 305.20,481.76 306.80,482.84 Q 309.07,484.37 309.74,483.07 Q 310.11,482.35 310.28,480.94 Q 310.50,479.02 308.07,478.94 A 1.02,0.84 -11.4 0 1 307.28,478.52 Q 305.96,476.39 309.00,476.25 Q 313.02,476.07 312.00,473.50 Q 310.18,468.91 310.69,464.00 Q 310.74,463.53 310.55,463.03 Q 309.99,461.60 310.17,459.99 Q 310.45,457.41 308.92,455.57 Q 307.57,453.95 308.99,452.39 Q 311.58,449.54 308.99,447.71 A 1.01,0.76 22.9 0 1 308.55,446.95 Q 308.63,445.19 310.51,444.78 Q 311.57,444.54 311.88,443.74 A 0.99,0.72 -80.0 0 1 312.49,443.15 Q 321.44,441.38 330.30,443.17 Q 333.04,443.72 337.30,444.17 Q 341.61,444.63 345.69,446.30 Q 348.30,447.37 351.01,448.12 A 1.16,0.83 27.4 0 0 351.93,447.99 Q 352.37,447.63 352.50,447.04 L 355.55,448.27 A 0.68,0.63 -75.0 0 1 355.93,448.99 Q 355.46,452.24 354.85,455.47 Q 354.74,456.07 354.79,456.52 Q 355.00,458.37 355.99,456.91 Q 356.24,456.55 356.30,456.02 Q 357.12,449.28 363.25,446.54 Q 365.62,445.41 369.25,444.50 Q 385.26,440.48 398.75,438.21 Q 400.21,438.21 401.54,438.78 A 1.74,1.46 -34.0 0 0 402.48,438.88 L 414.61,436.71 A 0.83,0.72 -86.7 0 1 415.41,437.74 L 414.06,443.25 Q 413.96,443.68 413.63,444.08 Q 413.16,444.67 413.96,445.25 Z"/>
<path fill="#00bbf9" d="M 352.50,447.04 Q 352.37,447.63 351.93,447.99 A 1.16,0.83 27.4 0 1 351.01,448.12 Q 348.30,447.37 345.69,446.30 Q 341.61,444.63 337.30,444.17 Q 333.04,443.72 330.30,443.17 Q 321.44,441.38 312.49,443.15 A 0.99,0.72 -80.0 0 0 311.88,443.74 Q 311.57,444.54 310.51,444.78 Q 308.63,445.19 308.55,446.95 A 1.01,0.76 22.9 0 0 308.99,447.71 Q 311.58,449.54 308.99,452.39 Q 307.57,453.95 308.92,455.57 Q 310.45,457.41 310.17,459.99 Q 309.99,461.60 310.55,463.03 Q 310.74,463.53 310.69,464.00 Q 310.18,468.91 312.00,473.50 Q 313.02,476.07 309.00,476.25 Q 305.96,476.39 307.28,478.52 A 1.02,0.84 -11.4 0 0 308.07,478.94 Q 310.50,479.02 310.28,480.94 Q 310.11,482.35 309.74,483.07 Q 309.07,484.37 306.80,482.84 Q 305.20,481.76 305.56,483.50 L 306.37,487.47 A 1.15,0.68 13.9 0 0 307.03,488.12 L 310.80,489.78 A 1.88,1.09 72.6 0 1 311.51,490.43 Q 312.99,492.66 316.06,492.69 Q 317.87,492.71 317.50,494.21 Q 296.31,491.13 275.00,489.03 Q 237.74,485.36 200.31,486.42 Q 199.81,486.44 200.07,486.01 Q 214.26,462.55 231.31,442.56 Q 232.66,440.98 235.00,441.21 Q 253.08,439.37 271.25,438.69 Q 297.89,437.69 325.50,440.75 Q 339.72,442.33 352.50,447.04 Z"/>
<path fill="#fee440" d="M 876.00,456.21 Q 872.68,456.77 871.06,456.44 Q 865.28,455.26 859.19,457.69 Q 852.98,460.16 848.66,463.36 Q 838.88,470.62 837.13,482.69 Q 837.07,483.13 837.24,483.66 Q 837.83,485.50 836.96,487.25 Q 833.68,480.18 830.44,475.31 Q 818.41,457.30 804.88,440.65 Q 804.25,439.88 805.24,440.00 Q 833.58,443.41 861.00,451.25 Q 871.63,454.29 876.00,456.21 Z"/>
<path fill="#00bbf9" d="M 228.00,442.04 Q 210.62,462.34 197.29,485.50 Q 196.50,483.13 195.97,480.69 Q 195.30,477.63 194.52,475.96 Q 188.69,463.44 175.56,458.19 Q 167.12,454.81 159.00,457.25 Q 157.69,457.64 157.00,456.46 Q 159.54,455.39 161.00,455.00 Q 194.05,446.23 228.00,442.04 Z"/>
<path fill="#252524" d="M 503.25,513.04 L 511.24,514.45 A 1.12,0.85 -3.5 0 1 511.99,514.95 Q 513.97,518.91 510.26,521.29 Q 509.16,521.99 510.50,522.04 Q 507.13,522.66 503.78,523.41 Q 494.53,525.47 489.38,533.40 Q 486.28,538.15 484.13,543.41 Q 475.17,565.37 467.23,587.73 A 0.44,0.43 16.4 0 0 467.55,588.30 Q 489.81,593.24 511.75,599.46 Q 512.93,605.67 512.75,613.00 Q 512.67,616.16 513.14,620.81 A 0.60,0.56 87.7 0 0 513.69,621.35 L 523.30,621.47 A 1.78,1.68 -89.7 0 0 525.00,619.69 Q 525.00,614.63 524.88,610.25 Q 524.78,606.65 526.50,603.54 Q 573.60,618.73 618.50,639.54 Q 639.50,649.44 647.94,654.06 Q 649.83,655.10 650.32,657.34 Q 650.64,658.78 650.04,661.12 Q 648.45,667.31 645.80,673.70 Q 645.43,674.58 645.54,677.37 L 645.71,681.75 Q 638.69,681.98 631.67,682.19 Q 629.03,682.27 628.11,683.21 Q 626.70,684.66 627.60,687.60 A 2.39,2.39 -6.4 0 0 629.71,689.28 Q 637.50,689.86 645.75,689.25 Q 646.87,689.17 647.25,689.71 Q 646.05,694.00 647.29,698.25 L 647.25,698.46 L 625.75,698.96 Q 621.67,698.72 621.49,703.11 Q 621.34,706.51 624.54,706.59 L 632.00,706.79 L 647.25,707.96 L 657.21,710.92 A 1.93,1.78 -75.2 0 1 658.40,713.17 Q 656.26,722.12 649.69,729.19 Q 645.88,733.28 641.00,733.25 Q 636.00,733.22 631.00,733.29 L 602.29,733.25 Q 602.16,730.76 602.52,728.31 Q 606.20,702.79 594.90,679.77 Q 577.27,643.83 539.00,631.74 Q 536.58,630.98 533.39,630.61 A 0.74,0.73 3.1 0 0 532.56,631.34 L 532.67,643.69 A 0.50,0.45 -88.4 0 1 532.19,644.19 Q 530.05,644.06 529.37,641.67 Q 527.78,636.05 523.02,634.69 Q 519.56,633.69 515.96,633.92 Q 512.32,634.15 510.11,637.06 Q 508.59,639.05 508.18,642.94 Q 507.27,651.70 507.94,660.50 Q 507.95,660.58 507.87,661.99 Q 507.80,663.20 508.96,663.50 Q 509.47,677.62 509.00,691.75 Q 508.99,692.08 508.50,692.54 L 506.25,693.21 Q 505.16,691.65 503.50,692.50 Q 501.64,693.45 499.51,696.02 Q 495.67,700.62 493.12,695.19 Q 491.83,692.44 493.39,689.67 A 0.37,0.37 20.5 0 0 493.14,689.12 Q 491.84,688.87 491.71,688.25 Q 495.50,683.88 501.21,680.70 A 1.51,1.47 -14.8 0 0 501.99,679.40 L 501.96,673.75 Q 504.59,672.74 504.50,669.50 Q 504.33,663.48 504.19,657.45 Q 504.14,655.11 503.43,645.45 Q 502.96,639.10 503.30,632.22 A 1.25,1.25 -4.6 0 0 501.79,630.94 Q 479.97,635.60 463.36,649.24 Q 455.75,655.50 449.58,663.67 Q 427.64,692.73 433.36,730.70 A 0.70,0.62 74.9 0 1 433.00,731.42 L 428.75,733.21 Q 414.57,733.43 400.39,733.10 Q 395.70,732.98 393.43,731.54 Q 389.00,728.73 389.01,722.50 Q 389.03,709.87 388.96,697.25 Q 389.03,662.62 388.91,628.00 Q 388.84,609.15 397.56,594.81 Q 405.57,581.65 422.00,579.21 Q 428.29,578.65 440.75,578.50 Q 445.34,578.44 448.80,578.88 Q 451.70,579.24 453.55,580.92 Q 455.54,582.73 456.82,585.20 Q 457.85,587.18 458.45,585.04 Q 465.73,559.19 476.56,533.81 Q 478.29,529.76 482.50,523.95 Q 490.09,513.48 503.25,513.04 ZM 397.42,714.81 Q 403.68,716.40 403.36,710.83 Q 403.25,708.76 403.25,708.66 Q 403.09,668.45 403.44,628.25 Q 403.55,615.21 407.00,605.75 Q 410.57,595.95 419.73,592.71 Q 423.65,591.32 433.94,591.08 Q 441.11,590.91 448.31,590.75 Q 450.40,590.70 450.86,588.67 Q 451.24,587.02 450.04,585.72 Q 449.21,584.83 447.50,584.66 Q 437.45,583.65 427.45,584.56 Q 418.20,585.40 412.96,588.05 Q 405.79,591.69 401.81,598.81 Q 396.38,608.53 395.22,620.02 Q 395.01,622.07 394.96,640.00 Q 394.87,676.20 395.25,712.04 Q 395.27,714.26 397.42,714.81 ZM 626.02,658.08 A 10.92 10.92 0.0 0 0 615.10,647.16 A 10.92 10.92 0.0 0 0 604.18,658.08 A 10.92 10.92 0.0 0 0 615.10,669.00 A 10.92 10.92 0.0 0 0 626.02,658.08 Z"/>
<path fill="#e1ddd9" d="M 397.42,714.81 Q 395.27,714.26 395.25,712.04 Q 394.87,676.20 394.96,640.00 Q 395.01,622.07 395.22,620.02 Q 396.38,608.53 401.81,598.81 Q 405.79,591.69 412.96,588.05 Q 418.20,585.40 427.45,584.56 Q 437.45,583.65 447.50,584.66 Q 449.21,584.83 450.04,585.72 Q 451.24,587.02 450.86,588.67 Q 450.40,590.70 448.31,590.75 Q 441.11,590.91 433.94,591.08 Q 423.65,591.32 419.73,592.71 Q 410.57,595.95 407.00,605.75 Q 403.55,615.21 403.44,628.25 Q 403.09,668.45 403.25,708.66 Q 403.25,708.76 403.36,710.83 Q 403.68,716.40 397.42,714.81 Z"/>
<path fill="#181716" d="M 602.29,733.25 Q 591.85,767.64 560.75,785.54 L 551.96,790.00 L 544.50,792.79 L 541.25,793.79 Q 533.59,795.92 525.71,797.00 Q 513.79,797.87 502.00,796.04 Q 492.96,794.03 484.29,790.75 Q 468.66,783.91 456.50,771.96 Q 440.19,755.98 434.02,733.78 A 0.77,0.74 -7.1 0 0 433.30,733.24 L 428.75,733.21 L 433.00,731.42 A 0.70,0.62 74.9 0 0 433.36,730.70 Q 427.64,692.73 449.58,663.67 Q 455.75,655.50 463.36,649.24 Q 479.97,635.60 501.79,630.94 A 1.25,1.25 -4.6 0 1 503.30,632.22 Q 502.96,639.10 503.43,645.45 Q 504.14,655.11 504.19,657.45 Q 504.33,663.48 504.50,669.50 Q 504.59,672.74 501.96,673.75 Q 501.62,673.42 500.94,673.69 Q 493.97,676.48 489.26,681.01 Q 474.67,695.06 475.91,714.22 Q 476.45,722.50 480.01,729.68 Q 483.72,737.18 489.92,742.67 Q 497.43,749.33 507.42,751.89 Q 520.43,755.22 532.85,750.16 Q 541.53,746.63 547.79,739.93 Q 554.29,732.98 557.17,723.86 Q 559.87,715.33 558.93,706.95 Q 557.96,698.34 553.31,690.44 Q 546.62,679.06 534.97,673.95 A 0.54,0.50 23.6 0 0 534.28,674.19 Q 533.75,675.39 533.92,676.75 Q 533.98,677.23 533.84,677.73 Q 533.35,679.65 535.00,680.76 Q 551.80,692.00 551.88,710.94 Q 551.91,719.31 548.73,726.17 Q 545.29,733.61 538.69,738.69 Q 527.42,747.35 514.27,745.98 Q 504.20,744.92 495.97,738.63 Q 483.11,728.80 483.00,711.00 Q 482.92,698.64 491.71,688.25 Q 491.84,688.87 493.14,689.12 A 0.37,0.37 20.7 0 1 493.39,689.67 Q 491.83,692.44 493.12,695.19 Q 495.67,700.62 499.51,696.02 Q 501.64,693.45 503.50,692.50 Q 505.16,691.65 506.25,693.21 Q 500.13,696.82 497.13,702.73 Q 494.25,708.39 495.21,715.13 Q 496.94,727.27 509.21,732.75 Q 520.89,737.14 530.79,729.79 Q 539.20,723.55 540.00,713.50 Q 540.91,702.13 532.00,694.79 L 527.46,691.50 Q 527.35,669.70 527.26,647.91 Q 527.24,642.48 527.18,642.08 Q 526.68,638.70 524.08,636.85 Q 520.97,634.63 516.55,635.34 Q 511.53,636.15 509.81,640.82 Q 509.00,643.03 509.01,648.78 Q 509.02,656.14 508.96,663.50 Q 507.80,663.20 507.87,661.99 Q 507.95,660.58 507.94,660.50 Q 507.27,651.70 508.18,642.94 Q 508.59,639.05 510.11,637.06 Q 512.32,634.15 515.96,633.92 Q 519.56,633.69 523.02,634.69 Q 527.78,636.05 529.37,641.67 Q 530.05,644.06 532.19,644.19 A 0.50,0.45 -88.4 0 0 532.67,643.69 L 532.56,631.34 A 0.74,0.73 3.1 0 1 533.39,630.61 Q 536.58,630.98 539.00,631.74 Q 577.27,643.83 594.90,679.77 Q 606.20,702.79 602.52,728.31 Q 602.16,730.76 602.29,733.25 ZM 474.94,756.81 Q 490.00,770.86 509.52,773.43 Q 519.57,774.75 529.43,772.84 Q 547.60,769.31 561.17,755.67 Q 576.84,739.91 579.25,718.75 Q 581.43,699.67 572.65,683.14 Q 567.90,674.21 560.60,667.29 Q 549.40,656.67 534.00,652.25 A 0.39,0.39 8.0 0 0 533.50,652.62 L 533.50,659.96 A 1.17,1.17 10.6 0 0 534.25,661.05 Q 546.71,665.84 555.40,674.81 Q 562.27,681.90 566.42,691.36 Q 574.48,709.73 567.67,728.71 Q 564.25,738.23 557.75,745.93 Q 545.78,760.10 527.41,763.79 Q 517.41,765.80 507.57,763.91 Q 486.73,759.91 473.76,741.73 Q 464.18,728.31 464.00,712.75 Q 463.73,689.37 481.11,673.12 Q 489.97,664.83 502.02,660.83 A 0.97,0.91 -9.7 0 0 502.68,659.95 L 502.70,652.30 A 0.41,0.38 -7.6 0 0 502.19,651.94 Q 475.93,658.72 463.19,680.94 Q 451.30,701.67 456.67,725.21 Q 460.88,743.71 474.94,756.81 Z"/>
<path fill="#e1ddd9" d="M 527.46,691.50 Q 526.03,693.51 526.00,696.00 Q 525.97,698.32 526.01,700.64 Q 526.02,700.72 526.35,704.45 Q 526.98,711.39 519.75,712.25 Q 510.46,713.35 510.18,704.57 Q 510.09,701.91 510.09,701.81 Q 509.89,698.66 509.96,695.50 Q 510.01,693.65 508.50,692.54 Q 508.99,692.08 509.00,691.75 Q 509.47,677.62 508.96,663.50 Q 509.02,656.14 509.01,648.78 Q 509.00,643.03 509.81,640.82 Q 511.53,636.15 516.55,635.34 Q 520.97,634.63 524.08,636.85 Q 526.68,638.70 527.18,642.08 Q 527.24,642.48 527.26,647.91 Q 527.35,669.70 527.46,691.50 ZM 524.9922,644.9614 A 6.12 6.12 0.0 0 0 518.8829,638.8308 L 518.0829,638.8294 A 6.12 6.12 0.0 0 0 511.9523,644.9387 L 511.8478,704.8186 A 6.12 6.12 0.0 0 0 517.9571,710.9492 L 518.7571,710.9506 A 6.12 6.12 0.0 0 0 524.8877,704.8413 L 524.9922,644.9614 Z"/>
<rect fill="#241e1b" x="-6.52" y="-36.06" transform="translate(518.42,674.89) rotate(0.1)" width="13.04" height="72.12" rx="6.12"/>
<circle fill="#e1ddd9" cx="615.10" cy="658.08" r="10.92"/>
<path fill="#e1ddd9" d="M 474.94,756.81 Q 460.88,743.71 456.67,725.21 Q 451.30,701.67 463.19,680.94 Q 475.93,658.72 502.19,651.94 A 0.41,0.38 -7.6 0 1 502.70,652.30 L 502.68,659.95 A 0.97,0.91 -9.7 0 1 502.02,660.83 Q 489.97,664.83 481.11,673.12 Q 463.73,689.37 464.00,712.75 Q 464.18,728.31 473.76,741.73 Q 486.73,759.91 507.57,763.91 Q 517.41,765.80 527.41,763.79 Q 545.78,760.10 557.75,745.93 Q 564.25,738.23 567.67,728.71 Q 574.48,709.73 566.42,691.36 Q 562.27,681.90 555.40,674.81 Q 546.71,665.84 534.25,661.05 A 1.17,1.17 10.6 0 1 533.50,659.96 L 533.50,652.62 A 0.39,0.39 8.0 0 1 534.00,652.25 Q 549.40,656.67 560.60,667.29 Q 567.90,674.21 572.65,683.14 Q 581.43,699.67 579.25,718.75 Q 576.84,739.91 561.17,755.67 Q 547.60,769.31 529.43,772.84 Q 519.57,774.75 509.52,773.43 Q 490.00,770.86 474.94,756.81 Z"/>
<path fill="#e1ddd9" d="M 501.96,673.75 L 501.99,679.40 A 1.51,1.47 -14.8 0 1 501.21,680.70 Q 495.50,683.88 491.71,688.25 Q 482.92,698.64 483.00,711.00 Q 483.11,728.80 495.97,738.63 Q 504.20,744.92 514.27,745.98 Q 527.42,747.35 538.69,738.69 Q 545.29,733.61 548.73,726.17 Q 551.91,719.31 551.88,710.94 Q 551.80,692.00 535.00,680.76 Q 533.35,679.65 533.84,677.73 Q 533.98,677.23 533.92,676.75 Q 533.75,675.39 534.28,674.19 A 0.54,0.50 23.6 0 1 534.97,673.95 Q 546.62,679.06 553.31,690.44 Q 557.96,698.34 558.93,706.95 Q 559.87,715.33 557.17,723.86 Q 554.29,732.98 547.79,739.93 Q 541.53,746.63 532.85,750.16 Q 520.43,755.22 507.42,751.89 Q 497.43,749.33 489.92,742.67 Q 483.72,737.18 480.01,729.68 Q 476.45,722.50 475.91,714.22 Q 474.67,695.06 489.26,681.01 Q 493.97,676.48 500.94,673.69 Q 501.62,673.42 501.96,673.75 Z"/>
<path fill="#e1ddd9" d="M 645.71,681.75 Q 651.26,682.17 653.25,681.75 Q 656.56,681.05 657.46,684.00 Q 657.64,686.64 655.93,688.02 Q 654.88,688.86 652.22,689.14 Q 649.73,689.41 647.25,689.71 Q 646.87,689.17 645.75,689.25 Q 637.50,689.86 629.71,689.28 A 2.39,2.39 -6.4 0 1 627.60,687.60 Q 626.70,684.66 628.11,683.21 Q 629.03,682.27 631.67,682.19 Q 638.69,681.98 645.71,681.75 Z"/>
<path fill="#e1ddd9" d="M 527.46,691.50 L 532.00,694.79 Q 531.43,695.41 531.33,696.19 A 1.42,0.84 40.2 0 0 531.64,697.08 L 538.30,706.02 A 3.14,2.51 -65.2 0 1 538.80,708.05 L 538.04,716.00 Q 537.99,716.49 537.71,716.91 Q 536.41,718.89 536.47,721.26 A 1.09,0.63 80.0 0 1 536.16,722.12 L 535.15,722.77 Q 534.44,723.23 534.37,723.32 Q 532.25,725.87 529.99,728.29 Q 527.41,731.05 524.66,732.03 Q 518.15,734.36 511.75,731.75 Q 509.82,730.96 509.21,732.75 Q 496.94,727.27 495.21,715.13 Q 494.25,708.39 497.13,702.73 Q 500.13,696.82 506.25,693.21 L 508.50,692.54 Q 510.01,693.65 509.96,695.50 Q 509.89,698.66 510.09,701.81 Q 510.09,701.91 510.18,704.57 Q 510.46,713.35 519.75,712.25 Q 526.98,711.39 526.35,704.45 Q 526.02,700.72 526.01,700.64 Q 525.97,698.32 526.00,696.00 Q 526.03,693.51 527.46,691.50 Z"/>
<path fill="#e1ddd9" d="M 532.00,694.79 Q 540.91,702.13 540.00,713.50 Q 539.20,723.55 530.79,729.79 Q 520.89,737.14 509.21,732.75 Q 509.82,730.96 511.75,731.75 Q 518.15,734.36 524.66,732.03 Q 527.41,731.05 529.99,728.29 Q 532.25,725.87 534.37,723.32 Q 534.44,723.23 535.15,722.77 L 536.16,722.12 A 1.09,0.63 80.0 0 0 536.47,721.26 Q 536.41,718.89 537.71,716.91 Q 537.99,716.49 538.04,716.00 L 538.80,708.05 A 3.14,2.51 -65.2 0 0 538.30,706.02 L 531.64,697.08 A 1.42,0.84 40.2 0 1 531.33,696.19 Q 531.43,695.41 532.00,694.79 Z"/>
<path fill="#e1ddd9" d="M 647.29,698.25 Q 648.04,698.19 650.81,698.44 Q 654.00,698.72 654.41,701.48 Q 655.18,706.71 650.00,706.79 Q 645.51,706.33 641.02,706.10 Q 639.51,706.02 636.56,706.60 Q 634.33,707.03 632.00,706.79 L 624.54,706.59 Q 621.34,706.51 621.49,703.11 Q 621.67,698.72 625.75,698.96 Q 627.59,698.64 629.08,699.49 Q 629.56,699.76 629.99,699.79 Q 637.12,700.34 644.25,699.75 Q 646.06,699.60 648.00,699.00 Q 650.01,698.38 647.25,698.46 L 647.29,698.25 Z"/>
<path fill="#e1ddd9" d="M 647.25,698.46 Q 650.01,698.38 648.00,699.00 Q 646.06,699.60 644.25,699.75 Q 637.12,700.34 629.99,699.79 Q 629.56,699.76 629.08,699.49 Q 627.59,698.64 625.75,698.96 L 647.25,698.46 Z"/>
<path fill="#e1ddd9" d="M 650.00,706.79 Q 649.07,707.42 648.50,707.25 Q 647.23,706.86 647.25,707.96 L 632.00,706.79 Q 634.33,707.03 636.56,706.60 Q 639.51,706.02 641.02,706.10 Q 645.51,706.33 650.00,706.79 Z"/>
<path fill="#646362" d="M 451.00,799.96 L 457.25,800.04 Q 454.63,800.34 452.03,800.73 Q 450.92,800.90 451.09,801.52 Q 451.18,801.84 451.70,802.19 Q 452.38,802.65 453.00,803.21 Q 451.03,803.60 449.07,803.45 Q 446.02,803.23 445.91,803.22 Q 422.83,802.83 399.75,802.46 L 399.94,801.30 A 0.51,0.43 4.4 0 0 399.43,800.80 L 394.50,800.71 L 404.00,800.46 L 451.00,799.96 Z"/>
<path fill="#262625" d="M 457.25,800.04 L 486.00,800.04 Q 489.99,800.50 494.00,800.48 Q 503.74,800.45 513.47,800.66 Q 523.71,800.89 532.91,800.70 Q 547.58,800.39 562.25,800.46 L 587.25,800.96 Q 590.23,800.76 592.19,801.81 Q 593.95,802.76 592.25,803.46 L 582.25,803.54 Q 567.87,803.42 553.50,803.49 Q 520.21,803.65 486.91,803.30 Q 483.81,803.26 478.58,803.45 Q 474.42,803.60 470.25,803.54 L 453.00,803.21 Q 452.38,802.65 451.70,802.19 Q 451.18,801.84 451.09,801.52 Q 450.92,800.90 452.03,800.73 Q 454.63,800.34 457.25,800.04 Z"/>
<path fill="#858482" d="M 626.00,800.21 Q 644.40,800.62 662.80,801.12 Q 662.89,801.12 672.72,801.23 Q 678.74,801.30 684.74,801.82 Q 686.87,802.00 683.75,801.95 Q 673.88,801.77 667.75,802.00 Q 663.84,802.14 660.41,802.00 Q 655.56,801.80 653.08,801.89 Q 622.67,803.00 592.25,803.46 Q 593.95,802.76 592.19,801.81 Q 590.23,800.76 587.25,800.96 Q 592.97,800.53 598.67,800.93 Q 602.05,801.17 604.45,801.00 Q 607.35,800.80 610.25,800.54 L 626.00,800.21 Z"/>
<path fill="#959491" d="M 394.50,800.71 L 399.43,800.80 A 0.51,0.43 4.4 0 1 399.94,801.30 L 399.75,802.46 Q 364.38,802.09 329.00,802.25 Q 328.36,802.69 328.15,802.30 A 0.42,0.34 -11.7 0 1 328.56,801.80 Q 338.38,801.53 348.19,801.48 Q 357.58,801.44 367.80,801.09 Q 381.14,800.64 394.50,800.71 Z"/>
</svg>