<?xml version="1.0" standalone="no"?>
<!DOCTYPE svg PUBLIC "-//W3C//DTD SVG 20010904//EN" "http://www.w3.org/TR/2001/REC-SVG-20010904/DTD/svg10.dtd">
<svg version="1.0" xmlns="http://www.w3.org/2000/svg"
	width="512.000000pt" height="512.000000pt" viewBox="0 0 512.000000 512.000000"
	preserveAspectRatio="xMidYMid meet">

	<g transform="translate(0.000000,512.000000) scale(0.100000,-0.100000)"
		fill="#1F2937" stroke="none">
		<path
			d="M2300 4866 c-532 -68 -981 -286 -1350 -656 -345 -344 -557 -758 -642
-1250 -30 -169 -32 -529 -5 -695 56 -342 174 -649 355 -920 263 -394 607 -676
1065 -871 57 -24 84 -40 75 -44 -7 -5 -62 -15 -122 -25 -448 -69 -292 -160
354 -206 212 -15 847 -15 1060 0 394 28 605 70 605 122 0 24 -71 50 -216 79
-77 15 -143 30 -146 34 -3 3 32 23 78 43 316 139 541 289 759 504 336 332 556
757 641 1239 27 147 36 443 20 601 -71 690 -445 1307 -1021 1685 -268 175
-553 287 -881 344 -159 28 -474 36 -629 16z m295 -77 c117 -10 275 -38 325
-57 17 -7 -56 -8 -220 -5 -267 6 -371 -1 -580 -43 -319 -63 -656 -223 -918
-436 -160 -130 -343 -335 -458 -513 -21 -33 -78 -136 -127 -230 -65 -125 -86
-160 -82 -131 18 111 129 350 240 516 354 531 918 859 1555 903 97 7 150 6
265 -4z m51 -757 c29 -19 38 -59 37 -162 l-1 -105 37 -17 c20 -9 77 -21 126
-28 423 -53 810 -315 1052 -710 88 -144 195 -427 209 -550 8 -75 12 -76 -91
21 -106 99 -204 133 -380 132 -120 -1 -198 -20 -285 -71 -60 -35 -140 -111
-187 -179 l-38 -55 -15 23 c-39 60 -95 122 -143 160 -66 53 -178 107 -239 115
l-47 7 -3 -624 -3 -624 -24 -52 c-58 -129 -208 -207 -396 -208 -94 0 -105 2
-167 33 -78 38 -116 79 -163 177 -51 106 -61 201 -30 278 10 23 56 47 92 47
35 0 50 -24 88 -140 30 -93 76 -149 147 -183 85 -40 210 -8 250 63 19 34 20
55 15 593 -3 399 -7 561 -16 570 -6 6 -11 22 -11 35 0 21 -3 23 -27 18 -52
-12 -168 -75 -209 -114 -22 -21 -67 -73 -98 -115 l-58 -77 -38 58 c-61 94
-134 158 -235 207 -49 23 -111 48 -137 54 -59 14 -208 14 -268 0 -76 -17 -182
-75 -248 -134 l-62 -57 0 35 c0 53 54 252 93 344 98 230 262 441 462 594 196
150 447 262 703 315 63 12 119 28 126 34 8 6 15 45 18 104 7 136 44 194 123
195 17 0 35 -3 41 -7z m1414 -3096 c0 -7 -152 -130 -220 -178 -72 -51 -309
-188 -325 -188 -5 0 40 28 100 63 128 72 267 167 369 248 73 60 76 62 76 55z" />
	</g>
</svg>